<?xml version="1.0" encoding="UTF-8" standalone="no"?>
<svg
   xmlns:dc="http://purl.org/dc/elements/1.1/"
   xmlns:cc="http://creativecommons.org/ns#"
   xmlns:rdf="http://www.w3.org/1999/02/22-rdf-syntax-ns#"
   xmlns:svg="http://www.w3.org/2000/svg"
   xmlns="http://www.w3.org/2000/svg"
   xmlns:sodipodi="http://sodipodi.sourceforge.net/DTD/sodipodi-0.dtd"
   xmlns:inkscape="http://www.inkscape.org/namespaces/inkscape"
   version="1.1"
   id="Layer_1"
   inkscape:version="1.0.2-2 (e86c870879, 2021-01-15)"
   sodipodi:docname="soviet.svg"
   x="0px"
   y="0px"
   viewBox="0 0 414 422.2"
   style="enable-background:new 0 0 414 422.2;"
   xml:space="preserve"><metadata
   id="metadata30"><rdf:RDF><cc:Work
       rdf:about=""><dc:format>image/svg+xml</dc:format><dc:type
         rdf:resource="http://purl.org/dc/dcmitype/StillImage" /><dc:title></dc:title></cc:Work></rdf:RDF></metadata><defs
   id="defs28" /><sodipodi:namedview
   pagecolor="#ffffff"
   bordercolor="#666666"
   borderopacity="1"
   objecttolerance="10"
   gridtolerance="10"
   guidetolerance="10"
   inkscape:pageopacity="0"
   inkscape:pageshadow="2"
   inkscape:window-width="1920"
   inkscape:window-height="1027"
   id="namedview26"
   showgrid="false"
   inkscape:zoom="1.4252673"
   inkscape:cx="245.93734"
   inkscape:cy="268.22235"
   inkscape:window-x="1912"
   inkscape:window-y="-8"
   inkscape:window-maximized="1"
   inkscape:current-layer="Layer_1" />
<style
   type="text/css"
   id="style21">
	.st0{fill:#FCD116;}
</style>
<path
   id="hammer_head"
   class="st0"
   d="m 162.18384,108.37579 -60.72431,57.79548 32.34725,32.34725 27.98655,-28.11672 c 54.54123,55.32225 96.91157,98.34344 149.56534,151.77823 14.57904,15.09972 39.96219,-5.46714 23.69094,-22.90993 -55.64768,-54.2158 -94.178,-93.33189 -152.16874,-150.1511 l 34.36488,-34.56013 z"
   style="stroke-width:0.65085" />
<path
   id="sickle_handle"
   class="st0"
   d="M 160.10112,270.56762 C 268.72799,371.38429 444.78292,189.66696 219.78407,58 v 0 c 167.39862,186.01294 6.70375,243.0274 -51.48224,185.62243 l -2.92883,-2.40815 c -2.40814,2.66849 -4.7512,5.33697 -7.15935,8.00546 -4.49086,-4.23053 -11.52004,-5.53223 -13.66785,1.75729 -8.85156,-0.58576 -14.05836,4.29561 -16.40142,13.4726 -16.4665,10.93428 -34.2998,20.50177 -44.58323,37.61913 -5.85765,18.15872 5.72748,26.034 18.80957,24.53705 21.47805,-8.91665 28.11672,-28.2469 39.63677,-44.12764 8.13562,-2.6034 15.03463,-6.0529 16.27125,-13.47259"
   style="stroke-width:0.65085" />
</svg>
